PathFileType  4	(X/Y/Z) C:\Users\antoi\Documents\MyRepositories\mobilecap\ResultsAnalysis
DataRate	CameraRate	NumFrames	NumMarkers	Units	OrigDataRate	OrigDataStartFrame	OrigNumFrames
100.0	100.0	4	51	mm	100.0	174	231
Frame#	Time	r_knee			r_shank_antsup			r_ankle			r_calc			r_5meta			r_toe			L_knee			L_shank_antsup			L_ankle			L_calc			L_5meta			L_toe			r_sh2			r_sh3			r_sh4			L_sh2			L_sh3			r_thigh1			r_thigh2			r_thigh3			r_thigh4			r_thigh5			L_thigh1			L_thigh2			L_thigh3			L_thigh4			r.ASIS			r.PSIS			L.ASIS			L.PSIS			C7			R_Shoulder			L_Shoulder			R_Sternum			L_Sternum			R_humerus			R_elbow_med			R_elbow_lat			R_forearm			R_wrist_radius			R_wrist_ulna			L_humerus			L_elbow_med			L_elbow_lat			L_forearm			L_wrist_radius			L_wrist_ulna			R_HJC			L_HJC			R_HJC_reg			L_HJC_reg			
		X1	Y1	Z1	X2	Y2	Z2	X3	Y3	Z3	X4	Y4	Z4	X5	Y5	Z5	X6	Y6	Z6	X7	Y7	Z7	X8	Y8	Z8	X9	Y9	Z9	X10	Y10	Z10	X11	Y11	Z11	X12	Y12	Z12	X13	Y13	Z13	X14	Y14	Z14	X15	Y15	Z15	X16	Y16	Z16	X17	Y17	Z17	X18	Y18	Z18	X19	Y19	Z19	X20	Y20	Z20	X21	Y21	Z21	X22	Y22	Z22	X23	Y23	Z23	X24	Y24	Z24	X25	Y25	Z25	X26	Y26	Z26	X27	Y27	Z27	X28	Y28	Z28	X29	Y29	Z29	X30	Y30	Z30	X31	Y31	Z31	X32	Y32	Z32	X33	Y33	Z33	X34	Y34	Z34	X35	Y35	Z35	X36	Y36	Z36	X37	Y37	Z37	X38	Y38	Z38	X39	Y39	Z39	X40	Y40	Z40	X41	Y41	Z41	X42	Y42	Z42	X43	Y43	Z43	X44	Y44	Z44	X45	Y45	Z45	X46	Y46	Z46	X47	Y47	Z47	X48	Y48	Z48	X49	Y49	Z49	X50	Y50	Z50	X51	Y51	Z51	

174	1.73000000	-135.19954	736.03316	-432.70599	-151.89807	666.27436	-406.90859	-226.04172	366.14093	-438.40815	-280.31645	395.53485	-491.18320	-197.72601	247.91430	-419.10571	-142.32366	233.47382	-461.77158	-158.31277	728.86778	-766.33597	-146.02066	659.44295	-770.25768	-258.79932	369.36312	-717.07778	-314.53296	403.96305	-660.41679	-238.64405	257.96805	-729.23088	-179.63627	240.70509	-684.27510	-177.32276	556.39511	-401.55926	-216.37450	679.16145	-441.40017	-248.22727	567.10661	-442.96522	-231.09838	689.02736	-769.55855	-258.49877	570.59826	-760.48275	-77.63068	1050.54043	-464.71425	-61.70341	941.80834	-441.73136	-111.57068	917.90233	-403.95068	-179.01659	1046.04892	-412.68439	-166.78475	929.43510	-407.58377	-104.86425	1020.86705	-786.60545	-95.05765	881.91199	-792.31740	-221.70307	1012.42667	-788.10850	-203.45314	871.86590	-783.24053	-93.18176	1198.12245	-487.71219	-269.30838	1223.58255	-556.85580	-95.20710	1195.29002	-737.04998	-275.14015	1220.63123	-661.91647	-186.95770	1669.31227	-592.80798	-146.86511	1615.14658	-451.43672	-156.67147	1641.77693	-739.44474	-63.06655	1590.74788	-577.56508	-64.04639	1592.13029	-627.61477	-108.92534	1416.52375	-311.06200	-126.16054	1295.64862	-319.08528	-98.78028	1341.40457	-265.36651	11.01333	1275.20518	-268.15533	98.29583	1198.54867	-275.37236	76.88991	1169.63037	-248.87818	-107.19577	1547.43063	-827.82518	-84.22057	1323.54877	-846.11939	-69.68692	1353.24840	-901.77683	48.13694	1328.43669	-885.16867	149.88899	1265.03892	-844.93084	144.22103	1237.91392	-870.18941	-160.05414	1125.57378	-510.57456	-159.24955	1126.11048	-710.86405	-155.00816	1123.05289	-517.17037	-164.13550	1118.43724	-681.43301	
175	1.74000000	-123.37904	751.42600	-430.37947	-140.38796	681.40379	-404.86463	-227.38217	384.15669	-439.87505	-281.47939	415.65589	-491.56074	-201.33741	264.52612	-424.00042	-146.19120	250.69357	-467.12200	-147.70114	741.41017	-768.26818	-134.50417	671.59052	-768.86284	-256.91660	383.78883	-710.70288	-313.87386	422.03889	-659.10521	-237.58214	272.31075	-718.71945	-179.79704	257.23324	-671.62320	-169.56596	572.07451	-399.96878	-205.58438	697.04979	-436.31797	-241.27030	586.27227	-438.53281	-218.61175	702.79402	-777.19135	-249.11145	585.08581	-765.62373	-77.69811	1067.38374	-464.56971	-57.38364	959.60236	-440.56305	-106.02051	933.77649	-403.11027	-178.74335	1059.17932	-412.51884	-161.78805	943.13424	-406.44038	-102.72525	1034.69764	-786.41629	-88.77040	896.27811	-793.63047	-219.28622	1022.80343	-791.05058	-196.72794	882.97534	-784.88796	-96.30506	1213.19137	-486.33649	-272.40154	1236.77492	-558.80954	-96.82465	1209.83734	-738.66197	-277.59372	1232.61124	-661.62660	-181.80436	1684.66008	-592.63183	-139.76463	1625.51815	-450.21113	-148.11700	1652.85651	-740.14965	-61.01325	1602.66400	-576.90345	-61.73044	1604.14402	-625.97290	-105.34921	1420.55893	-317.68772	-124.52167	1298.72399	-331.96617	-99.46869	1341.65614	-274.49709	4.31766	1267.15628	-268.70922	84.97283	1183.90557	-271.25647	59.46216	1156.54289	-246.63718	-100.48390	1553.83007	-825.28444	-89.59428	1329.90764	-839.33335	-74.41207	1356.41621	-896.66358	40.71588	1320.79623	-884.79582	137.10615	1248.77045	-846.19152	127.49598	1221.53875	-870.09485	-162.04658	1139.89122	-510.66845	-160.29202	1139.79759	-710.95351	-157.56448	1137.85200	-515.67279	-165.94342	1131.11039	-681.87117	
176	1.75000000	-112.36017	766.20993	-428.36298	-129.18855	695.67807	-402.57664	-227.30795	401.55014	-440.95170	-280.96896	434.94768	-491.58043	-203.60500	280.90001	-427.39343	-148.54518	267.22405	-470.59875	-139.64169	754.01841	-769.89449	-125.01921	683.68980	-767.95729	-252.73864	397.81296	-706.88314	-310.88404	437.47824	-658.06907	-234.12467	285.70322	-711.49137	-176.64247	272.89137	-663.48799	-162.09359	586.72411	-399.25957	-194.82178	714.38379	-431.04827	-234.84459	605.08068	-433.54797	-208.05585	715.82182	-781.87510	-240.68171	598.73646	-769.29374	-77.95340	1082.55139	-464.21962	-53.73216	975.39565	-439.82228	-101.46207	948.00208	-401.86756	-178.24616	1071.24334	-411.64191	-157.60870	955.43038	-406.36764	-100.77492	1047.35386	-786.87690	-83.74520	909.22022	-793.73906	-217.02352	1032.88629	-793.02647	-191.23139	893.73731	-785.42627	-98.80832	1226.30479	-485.33665	-274.94116	1248.51064	-560.88984	-98.53544	1222.46177	-740.48916	-279.04289	1243.32781	-661.49103	-176.82709	1699.01892	-592.31548	-132.55638	1634.55512	-449.77288	-138.99541	1662.29109	-740.20315	-59.04983	1613.25425	-576.83432	-59.46181	1614.72605	-624.24149	-100.06277	1424.26087	-324.65503	-122.63611	1302.54784	-345.04556	-101.82538	1343.26222	-283.93369	-3.39008	1263.10859	-271.50187	71.24403	1173.73965	-270.39873	42.78076	1149.35208	-246.00394	-93.15368	1560.07533	-821.45948	-94.48387	1336.39242	-833.25928	-79.11584	1360.41361	-891.85688	32.20420	1315.41078	-882.82802	122.84084	1236.13723	-844.56684	110.37226	1209.69622	-868.23475	-163.68475	1152.45724	-511.03389	-161.24465	1151.78770	-711.31034	-160.34885	1150.74969	-514.90032	-167.19011	1142.08931	-682.95516	
177	1.76000000	-103.15362	780.09857	-426.73469	-119.05253	709.52358	-400.52671	-225.15907	417.63703	-441.22328	-278.09485	452.72642	-491.24777	-204.12307	296.28749	-428.95222	-149.08199	282.15514	-472.11849	-133.71388	766.14405	-770.48598	-117.88836	695.87330	-767.63274	-246.35138	410.29518	-706.17903	-305.72582	449.80381	-658.12999	-228.17591	297.20121	-707.77920	-170.38385	286.30511	-659.59851	-154.45749	601.27313	-398.16494	-185.38898	730.57258	-426.82800	-228.02336	622.21966	-429.32721	-200.53931	727.93588	-783.55483	-233.55279	611.06644	-771.11751	-78.71530	1095.78009	-463.28086	-51.85086	988.84260	-439.23166	-99.00466	960.43353	-400.47557	-178.43143	1082.20008	-410.69897	-155.42463	966.57509	-406.73819	-99.44821	1059.06847	-787.89213	-80.45545	920.96956	-792.70458	-215.48613	1042.92852	-793.80682	-187.73361	904.19241	-785.87478	-100.41907	1237.65571	-485.04166	-276.64107	1258.68425	-562.87552	-100.02441	1233.01622	-742.35626	-279.74966	1252.89867	-661.78187	-172.42645	1711.79357	-591.49554	-125.74100	1642.75390	-449.60210	-130.48226	1670.68733	-740.29249	-57.04328	1622.83864	-576.97510	-57.21790	1624.21122	-622.46724	-95.14294	1428.11647	-330.87123	-120.52106	1307.86957	-357.30960	-104.80138	1346.04646	-293.10314	-10.60741	1261.79252	-276.48330	57.69701	1166.55996	-271.95062	27.21171	1145.78912	-247.03250	-86.43105	1566.21597	-817.00339	-99.66800	1342.90170	-828.40810	-83.99042	1365.46863	-887.42312	23.54274	1313.02229	-878.96999	108.21526	1227.50785	-841.05406	93.92822	1202.08937	-865.31566	-164.73974	1163.36497	-511.67007	-161.97892	1162.01129	-711.93848	-162.43793	1161.49303	-514.99161	-167.77365	1151.58447	-684.47605	
